<svg fill="#000000" xmlns="http://www.w3.org/2000/svg"  viewBox="0 0 32 32" width="32px" height="32px"><path d="M 8 4 L 4 10 L 7 10 L 7 14 L 11 8 L 8 8 L 8 4 z M 21 4 C 18.862215 4 16.944189 4.9704995 15.658203 6.4902344 L 15.654297 6.4882812 L 15.626953 6.5253906 C 15.46943 6.714075 15.322866 6.9106105 15.185547 7.1152344 L 5.3222656 20.289062 C 5.2665866 20.344622 5.1788236 20.371331 5.1269531 20.429688 C 4.3603473 21.292118 4 22.402778 4 23.5 C 4 24.597222 4.3603473 25.707882 5.1269531 26.570312 C 5.8935589 27.432744 7.0833337 28 8.5 28 C 9.6981893 28 10.67305 27.537511 11.427734 26.890625 L 11.435547 26.900391 L 24.863281 16.828125 C 25.084733 16.680671 25.297133 16.52255 25.5 16.351562 L 25.542969 16.318359 L 25.539062 16.314453 C 27.041235 15.028664 28 13.123447 28 11 C 28 7.1458524 24.854151 4 21 4 z M 21 6 C 23.773271 6 26 8.2267307 26 11 C 26 12.593653 25.249445 13.98848 24.097656 14.902344 L 23.693359 15.207031 C 22.916137 15.703707 21.996092 16 21 16 C 18.226729 16 16 13.773269 16 11 C 16 9.995747 16.300489 9.0682438 16.804688 8.2871094 L 17.042969 7.9667969 C 17.954716 6.7767026 19.375739 6 21 6 z M 21 8 C 20.083334 8 19.268559 8.3797556 18.751953 8.9609375 C 18.235347 9.5421194 18 10.277778 18 11 C 18 11.722222 18.235347 12.457881 18.751953 13.039062 C 19.268559 13.620245 20.083334 14 21 14 C 21.916666 14 22.731441 13.620244 23.248047 13.039062 C 23.764653 12.457882 24 11.722222 24 11 C 24 10.277778 23.764653 9.5421194 23.248047 8.9609375 C 22.731441 8.3797556 21.916666 8 21 8 z M 21 10 C 21.416666 10 21.601893 10.120244 21.751953 10.289062 C 21.902014 10.457882 22 10.722222 22 11 C 22 11.277778 21.90201 11.542119 21.751953 11.710938 C 21.601893 11.879755 21.416666 12 21 12 C 20.583334 12 20.398107 11.879756 20.248047 11.710938 C 20.097986 11.542118 20 11.277778 20 11 C 20 10.722222 20.097986 10.457881 20.248047 10.289062 C 20.398107 10.120245 20.583334 10 21 10 z M 14.070312 11.9375 C 14.490661 15.043318 16.958373 17.510182 20.064453 17.929688 L 12.958984 23.257812 C 12.90891 22.241903 12.58246 21.227778 11.873047 20.429688 C 11.155734 19.62271 10.045488 19.117953 8.7480469 19.050781 L 14.070312 11.9375 z M 8.5 21 C 9.4166661 21 9.9768929 21.307744 10.376953 21.757812 C 10.777013 22.207881 11 22.847222 11 23.5 C 11 24.128582 10.772877 24.731091 10.400391 25.177734 L 10.236328 25.300781 L 10.257812 25.330078 C 9.8649595 25.722141 9.3431867 26 8.5 26 C 7.5833339 26 7.0231072 25.692256 6.6230469 25.242188 C 6.2229865 24.792119 6 24.152778 6 23.5 C 6 22.847222 6.2229865 22.207882 6.6230469 21.757812 C 6.6687389 21.706412 6.7427911 21.680263 6.7929688 21.632812 L 6.8066406 21.644531 L 6.8417969 21.595703 C 7.2269161 21.250758 7.7184633 21 8.5 21 z"/></svg>