<svg fill="#000000" xmlns="http://www.w3.org/2000/svg"  viewBox="0 0 32 32" width="32px" height="32px"><path d="M 15 3 L 15 5 C 8.3845336 5 3 10.384534 3 17 C 3 23.615466 8.3845336 29 15 29 C 21.615466 29 27 23.615466 27 17 L 29 17 C 29 9.28 22.72 3 15 3 z M 17 5.1679688 C 22.018 6.0129687 25.987031 9.983 26.832031 15 L 25.935547 15 L 23.828125 15 L 22.414062 13.585938 L 20.414062 11.585938 L 18.414062 9.5859375 L 17 8.171875 L 17 6.0058594 L 17 5.1679688 z M 15 7 L 15 9 L 19 13 L 23 17 L 25 17 C 25 22.534534 20.534534 27 15 27 C 9.4654664 27 5 22.534534 5 17 C 5 11.465466 9.4654664 7 15 7 z M 15 13 C 13.75 13 12.685226 13.504756 12.001953 14.273438 C 11.318681 15.042118 11 16.027778 11 17 C 11 17.972222 11.318681 18.957881 12.001953 19.726562 C 12.685226 20.495244 13.75 21 15 21 C 16.25 21 17.314774 20.495244 17.998047 19.726562 C 18.681319 18.957881 19 17.972222 19 17 C 19 16.027778 18.681319 15.042119 17.998047 14.273438 C 17.314774 13.504755 16.25 13 15 13 z M 15 15 C 15.749999 15 16.185226 15.245244 16.501953 15.601562 C 16.81868 15.957882 17 16.472222 17 17 C 17 17.527778 16.81868 18.042119 16.501953 18.398438 C 16.185226 18.754756 15.749999 19 15 19 C 14.250001 19 13.814774 18.754756 13.498047 18.398438 C 13.18132 18.042119 13 17.527778 13 17 C 13 16.472222 13.18132 15.957881 13.498047 15.601562 C 13.814774 15.245245 14.250001 15 15 15 z"/></svg>