<svg fill="#000000" xmlns="http://www.w3.org/2000/svg"  viewBox="0 0 32 32" width="32px" height="32px"><path d="M 18.828125 4 C 18.032716 4 17.269336 4.3166015 16.707031 4.8789062 L 6.8789062 14.707031 C 6.3166015 15.269336 6 16.032716 6 16.828125 L 6 26 C 6 27.093063 6.9069372 28 8 28 L 24 28 C 25.093063 28 26 27.093063 26 26 L 26 6 C 26 4.9069372 25.093063 4 24 4 L 18.828125 4 z M 18.828125 6 L 24 6 L 24 15 L 9.4140625 15 L 18.121094 6.2929688 C 18.308789 6.1052735 18.563534 6 18.828125 6 z M 8 17 L 24 17 L 24 26 L 8 26 L 8 17 z M 18 19 L 18 21 L 22 21 L 22 19 L 18 19 z"/></svg>