<svg fill="#000000" xmlns="http://www.w3.org/2000/svg"  viewBox="0 0 32 32" width="32px" height="32px"><path d="M 13 3 C 6.9365932 3 2 7.9365932 2 14 L 2 15 L 24 15 C 27.301865 15 30 12.301863 30 9 C 30 8.7936484 29.98932 8.5897991 29.96875 8.3886719 C 29.660232 5.3715946 27.095498 3 24 3 L 13 3 z M 13.789062 5 L 19.419922 5 C 18.46211 6.129631 18 7.570056 18 9 C 18 10.429944 18.46211 11.87037 19.419922 13 L 14.828125 13 C 15.617022 11.989551 16 10.741049 16 9.5 C 16 8.1527779 15.556319 6.7921194 14.623047 5.7421875 C 14.378924 5.4675494 14.098985 5.2197036 13.789062 5 z M 24 5 C 26.220986 5 28 6.7790155 28 9 C 28 11.220985 26.220986 13 24 13 C 22.583334 13 21.648107 12.504756 20.998047 11.773438 C 20.347987 11.042118 20 10.027778 20 9 C 20 7.9722221 20.347987 6.9578806 20.998047 6.2265625 C 21.648107 5.4952444 22.583334 5 24 5 z M 10.5 6 C 11.749999 6 12.560226 6.4327444 13.126953 7.0703125 C 13.69368 7.7078806 14 8.5972221 14 9.5 C 14 10.402778 13.69368 11.292119 13.126953 11.929688 C 12.560226 12.567255 11.749999 13 10.5 13 C 9.2500008 13 8.4397738 12.567256 7.8730469 11.929688 C 7.3063199 11.292118 7 10.402778 7 9.5 C 7 8.5972221 7.3063199 7.7078806 7.8730469 7.0703125 C 8.4397738 6.4327444 9.2500008 6 10.5 6 z M 24 7 C 22.896 7 22 7.895 22 9 C 22 10.105 22.895 11 24 11 L 24 7 z M 10.5 8 C 9.672 8 9 8.672 9 9.5 C 9 10.328 9.672 11 10.5 11 L 11 11 L 11 8 L 10.5 8 z M 5.046875 10.068359 C 5.1451905 11.117408 5.5037097 12.14419 6.171875 13 L 4.2011719 13 C 4.3212878 11.958809 4.6157897 10.973122 5.046875 10.068359 z M 8 17 C 7.7936484 17 7.5897991 17.01068 7.3886719 17.03125 C 5.7513223 17.173967 4.4077604 17.879404 3.5019531 18.898438 C 2.6899365 19.811956 2.23174 20.944518 2.0742188 22.113281 C 2.0306457 22.403658 2 22.697919 2 23 C 2 23.302081 2.0306457 23.596342 2.0742188 23.886719 C 2.23174 25.055482 2.6899365 26.188044 3.5019531 27.101562 C 4.4077604 28.120596 5.7513223 28.826033 7.3886719 28.96875 C 7.5897991 28.98932 7.7936484 29 8 29 L 21.5 29 L 30 29 L 30 28 C 30 21.936593 25.063407 17 19 17 L 8 17 z M 8 19 C 10.220986 19 12 20.779015 12 23 C 12 25.220985 10.220986 27 8 27 C 5.7796254 27 4 25.220375 4 23 C 4 20.779625 5.7796254 19 8 19 z M 12.455078 19 L 18.210938 19 C 17.901015 19.219704 17.621076 19.467549 17.376953 19.742188 C 16.443681 20.792119 16 22.152778 16 23.5 C 16 24.741049 16.382978 25.989551 17.171875 27 L 12.455078 27 C 13.411581 25.936235 14 24.535615 14 23 C 14 21.464385 13.411581 20.063765 12.455078 19 z M 21.5 20 C 22.749999 20 23.560226 20.432744 24.126953 21.070312 C 24.69368 21.707881 25 22.597222 25 23.5 C 25 24.402778 24.69368 25.292118 24.126953 25.929688 C 23.560226 26.567256 22.749999 27 21.5 27 C 20.250001 27 19.439774 26.567256 18.873047 25.929688 C 18.30632 25.292119 18 24.402778 18 23.5 C 18 22.597222 18.30632 21.707882 18.873047 21.070312 C 19.439774 20.432744 20.250001 20 21.5 20 z M 8 21 L 8 25 C 9.105 25 10 24.105 10 23 C 10 21.895 9.104 21 8 21 z M 21 22 L 21 25 L 21.5 25 C 22.328 25 23 24.328 23 23.5 C 23 22.672 22.328 22 21.5 22 L 21 22 z M 26.953125 24.068359 C 27.38421 24.973122 27.678712 25.958809 27.798828 27 L 25.828125 27 C 26.49629 26.14419 26.854809 25.117408 26.953125 24.068359 z"/></svg>