<svg fill="#000000" xmlns="http://www.w3.org/2000/svg"  viewBox="0 0 32 32" width="32px" height="32px"><path d="M 1 8 L 1 9 L 1 24 L 30 24 L 30 8 L 1 8 z M 3 10 L 10 10 L 10 22 L 3 22 L 3 10 z M 12 10 L 19 10 L 19 22 L 12 22 L 12 10 z M 21 10 L 22 10 L 22 11.5 C 22 12.869063 23.130937 14 24.5 14 C 25.869063 14 27 12.869063 27 11.5 L 27 10 L 28 10 L 28 22 L 24.787109 22 L 27 18.392578 L 27 18 L 26 19 L 26 17 L 22 17 L 22 19 L 24.28125 19 L 22.441406 22 L 21 22 L 21 10 z M 24 10 L 25 10 L 25 11.5 C 25 11.786937 24.786937 12 24.5 12 C 24.213063 12 24 11.786937 24 11.5 L 24 10 z M 6.5 12 C 5.1309372 12 4 13.130937 4 14.5 L 4 17.5 C 4 18.869063 5.1309372 20 6.5 20 C 7.8690628 20 9 18.869063 9 17.5 L 9 14.5 C 9 13.130937 7.8690628 12 6.5 12 z M 15.5 12 C 14.130937 12 13 13.130937 13 14.5 L 13 17.5 C 13 18.869063 14.130937 20 15.5 20 C 16.869063 20 18 18.869063 18 17.5 L 18 14.5 C 18 13.130937 16.869063 12 15.5 12 z M 6.5 14 C 6.7869372 14 7 14.213063 7 14.5 L 7 17.5 C 7 17.786937 6.7869372 18 6.5 18 C 6.2130628 18 6 17.786937 6 17.5 L 6 14.5 C 6 14.213063 6.2130628 14 6.5 14 z M 15.5 14 C 15.786937 14 16 14.213063 16 14.5 L 16 17.5 C 16 17.786937 15.786937 18 15.5 18 C 15.213063 18 15 17.786937 15 17.5 L 15 14.5 C 15 14.213063 15.213063 14 15.5 14 z"/></svg>