<?xml version="1.0"?><svg fill="#000000" xmlns="http://www.w3.org/2000/svg"  viewBox="0 0 32 32" width="32px" height="32px">    <path d="M 4 5 L 4 11 L 8 11 L 11 8 L 8 5 L 4 5 z M 11 5 L 13 7 L 13 5 L 11 5 z M 15 5 L 15 27 L 17 27 L 17 5 L 15 5 z M 19 5 L 19 7 L 21 5 L 19 5 z M 24 5 L 21 8 L 24 11 L 28 11 L 28 5 L 24 5 z M 6 7 L 7.171875 7 L 8.171875 8 L 7.171875 9 L 6 9 L 6 7 z M 24.828125 7 L 26 7 L 26 9 L 24.828125 9 L 23.828125 8 L 24.828125 7 z M 13 9 L 11 11 L 11 13 L 13 15 L 13 9 z M 19 9 L 19 15 L 21 13 L 21 11 L 19 9 z M 4 13 L 4 19 L 8 19 L 11 16 L 8 13 L 4 13 z M 24 13 L 21 16 L 24 19 L 28 19 L 28 13 L 24 13 z M 6 15 L 7.171875 15 L 8.171875 16 L 7.171875 17 L 6 17 L 6 15 z M 24.828125 15 L 26 15 L 26 17 L 24.828125 17 L 23.828125 16 L 24.828125 15 z M 13 17 L 11 19 L 11 21 L 13 23 L 13 17 z M 19 17 L 19 23 L 21 21 L 21 19 L 19 17 z M 4 21 L 4 27 L 8 27 L 11 24 L 8 21 L 4 21 z M 24 21 L 21 24 L 24 27 L 28 27 L 28 21 L 24 21 z M 6 23 L 7.171875 23 L 8.171875 24 L 7.171875 25 L 6 25 L 6 23 z M 24.828125 23 L 26 23 L 26 25 L 24.828125 25 L 23.828125 24 L 24.828125 23 z M 13 25 L 11 27 L 13 27 L 13 25 z M 19 25 L 19 27 L 21 27 L 19 25 z"/></svg>